<svg xmlns="http://www.w3.org/2000/svg" width="64.214" height="62.61" viewBox="0 0 64.214 62.61">
  <path id="github" d="M21.478,58.413c0,.259-.3.466-.673.466-.427.039-.725-.168-.725-.466,0-.259.3-.466.673-.466C21.142,57.909,21.478,58.116,21.478,58.413Zm-4.026-.583c-.091.259.168.557.557.634a.607.607,0,0,0,.8-.259c.078-.259-.168-.557-.557-.673a.665.665,0,0,0-.8.3Zm5.722-.22c-.375.091-.634.337-.6.634.039.259.375.427.764.337s.634-.337.6-.6S23.55,57.572,23.174,57.611ZM31.693,8C13.736,8,0,21.633,0,39.589A32.458,32.458,0,0,0,21.944,70.557c1.657.3,2.24-.725,2.24-1.567,0-.8-.039-5.23-.039-7.949,0,0-9.063,1.942-10.966-3.858,0,0-1.476-3.767-3.6-4.738,0,0-2.965-2.033.207-1.994a6.834,6.834,0,0,1,5,3.34c2.835,5,7.587,3.56,9.438,2.706a7.2,7.2,0,0,1,2.071-4.363c-7.237-.8-14.539-1.851-14.539-14.306A9.812,9.812,0,0,1,14.811,30.2a12.232,12.232,0,0,1,.337-8.791c2.706-.842,8.933,3.5,8.933,3.5a30.585,30.585,0,0,1,16.261,0s6.227-4.35,8.933-3.5a12.226,12.226,0,0,1,.337,8.791c2.071,2.292,3.34,4.078,3.34,7.625,0,12.493-7.625,13.49-14.863,14.306,1.191,1.023,2.2,2.965,2.2,6.007,0,4.363-.039,9.762-.039,10.823,0,.842.6,1.864,2.24,1.567,12.946-4.3,21.724-16.584,21.724-30.942C64.214,21.633,49.65,8,31.693,8ZM12.584,52.652c-.168.129-.129.427.091.673.207.207.5.3.673.129.168-.129.129-.427-.091-.673C13.05,52.575,12.752,52.484,12.584,52.652Zm-1.4-1.049c-.091.168.039.375.3.5a.385.385,0,0,0,.557-.091c.091-.168-.039-.375-.3-.5C11.483,51.435,11.276,51.474,11.186,51.6Zm4.195,4.609c-.207.168-.129.557.168.8.3.3.673.337.842.129.168-.168.091-.557-.168-.8C15.937,56.044,15.549,56.005,15.38,56.213Zm-1.476-1.9c-.207.129-.207.466,0,.764s.557.427.725.3a.59.59,0,0,0,0-.8C14.448,54.271,14.112,54.141,13.9,54.309Z" transform="translate(0 -8)" fill="#ffffff"/>
</svg>
