<svg xmlns="http://www.w3.org/2000/svg" width="58" height="58" viewBox="0 0 58 58">
  <path id="linkedin" d="M53.857,32H4.13A4.161,4.161,0,0,0,0,36.182V85.818A4.161,4.161,0,0,0,4.13,90H53.857A4.172,4.172,0,0,0,58,85.818V36.182A4.172,4.172,0,0,0,53.857,32ZM17.529,81.714h-8.6V54.035h8.609V81.714Zm-4.3-31.46a4.984,4.984,0,1,1,4.984-4.984A4.987,4.987,0,0,1,13.231,50.254Zm36.522,31.46h-8.6V68.25c0-3.211-.065-7.341-4.467-7.341-4.479,0-5.166,3.5-5.166,7.108v13.7h-8.6V54.035h8.247v3.78h.117a9.054,9.054,0,0,1,8.143-4.467c8.7,0,10.318,5.735,10.318,13.192Z" transform="translate(0 -32)" fill="#ffffff"/>
</svg>
