<svg xmlns="http://www.w3.org/2000/svg" width="70.705" height="49.714" viewBox="0 0 70.705 49.714">
  <path id="youtube" d="M84.16,71.779a8.884,8.884,0,0,0-6.251-6.292C72.4,64,50.285,64,50.285,64s-22.11,0-27.624,1.487a8.884,8.884,0,0,0-6.251,6.292c-1.477,5.55-1.477,17.129-1.477,17.129s0,11.579,1.477,17.129a8.752,8.752,0,0,0,6.251,6.191c5.514,1.487,27.624,1.487,27.624,1.487s22.11,0,27.624-1.487a8.752,8.752,0,0,0,6.251-6.191c1.477-5.55,1.477-17.129,1.477-17.129S85.638,77.328,84.16,71.779ZM43.054,99.42V78.395l18.48,10.513Z" transform="translate(-14.933 -64)" fill="#ffffff"/>
</svg>
